<svg width="16" height="15" viewBox="0 0 16 15" fill="none" xmlns="http://www.w3.org/2000/svg">
<g clip-path="url(#clip0)">
<path fill-rule="evenodd" clip-rule="evenodd" d="M11.8655 2.12053C13.5489 2.12053 14.9132 3.54086 14.9132 5.293C14.9132 7.04513 13.5487 8.46546 11.8655 8.46546C10.1823 8.46546 8.81789 7.04513 8.81789 5.293C8.81789 3.541 10.1823 2.12053 11.8655 2.12053ZM0.359293 0H15.6356C15.8372 0 16.0004 0.169968 16.0004 0.379785C16.0004 0.494723 15.9525 0.599632 15.8708 0.669706L14.4818 2.5071C14.2989 2.32073 14.0977 2.15374 13.881 2.00939L14.7441 0.759705H1.2283L6.17296 7.01775C6.24979 7.08769 6.2977 7.18772 6.2977 7.30266V13.9642L9.03937 12.6599V7.84726C9.25434 8.10479 9.50135 8.33277 9.77401 8.52442V12.8797C9.77401 13.0295 9.69237 13.1595 9.5675 13.2194L6.1201 14.9486C5.94731 15.0534 5.72648 14.9936 5.62557 14.8086C5.59198 14.7489 5.57765 14.6839 5.57765 14.6189V7.45745L0.104996 0.644631C-0.0343272 0.494723 -0.0343272 0.259831 0.104996 0.109923C0.176871 0.0349695 0.268147 0 0.359293 0ZM12.6215 3.83336C12.7944 3.65052 13.0758 3.6497 13.2498 3.8316C13.4236 4.01349 13.4244 4.30924 13.2515 4.49195L12.4925 5.29354L13.2524 6.0958C13.4239 6.27716 13.4215 6.57101 13.2472 6.75223C13.0727 6.93331 12.7924 6.9329 12.6209 6.75141L11.8661 5.95471L11.1099 6.75291C10.9369 6.93575 10.6556 6.93656 10.4816 6.75467C10.3077 6.57277 10.3069 6.27716 10.4799 6.09431L11.239 5.29286L10.4791 4.4906C10.3076 4.30924 10.3098 4.01526 10.4843 3.83417C10.6586 3.65309 10.939 3.6535 11.1106 3.83499L11.8653 4.63169L12.6215 3.83336Z" fill="white"/>
</g>
<defs>
<clipPath id="clip0">
<rect width="16" height="15" fill="white"/>
</clipPath>
</defs>
</svg>
